<?xml version="1.0" standalone="no"?><!DOCTYPE svg PUBLIC "-//W3C//DTD SVG 1.1//EN" "http://www.w3.org/Graphics/SVG/1.1/DTD/svg11.dtd"><svg t="1636598822408" class="icon" viewBox="0 0 1031 1024" version="1.1" xmlns="http://www.w3.org/2000/svg" p-id="3918" xmlns:xlink="http://www.w3.org/1999/xlink" width="201.3671875" height="200"><defs><style type="text/css"></style></defs><path d="M934.97856 61.80864H96.73728c-53.41184 0-96.7424 43.33056-96.7424 96.73728v709.4272c0 53.4016 43.33056 96.7424 96.7424 96.7424h838.41024c53.40672 0 96.73728-43.33056 96.73728-96.7424V158.54592c-0.16384-53.4016-43.4944-96.73728-96.90624-96.73728zM158.5408 303.8208c0-35.60448 28.88704-64.49664 64.49152-64.49664h193.4848c35.60448 0 64.49152 28.89216 64.49152 64.49664v257.9712c0 35.59936-28.88704 64.49152-64.49664 64.49152H223.03232c-35.60448 0-64.49152-28.89216-64.49152-64.49152V303.82592z m682.5472 483.36384H190.78656a32.256 32.256 0 0 1 0-64.49664h650.1376a32.256 32.256 0 0 1 32.24576 32.24576c0 17.80224-14.27456 32.25088-32.08192 32.25088z m0-161.23904h-257.96608a32.256 32.256 0 0 1-32.24576-32.24064 32.256 32.256 0 0 1 32.24576-32.24576h257.96608a32.256 32.256 0 0 1 32.256 32.24576 32.256 32.256 0 0 1-32.256 32.24064z m0-161.05984h-257.96608a32.25088 32.25088 0 0 1 0-64.49152h257.96608c17.81248 0 32.256 14.4384 32.256 32.24576s-14.44864 32.24576-32.256 32.24576z m0-161.06496h-257.96608c-17.80736 0-32.24576-14.44864-32.24576-32.25088s14.44352-32.24064 32.24576-32.24064h257.96608a32.256 32.256 0 0 1 0 64.49152z" p-id="3919"></path></svg>